<svg xmlns="http://www.w3.org/2000/svg" xmlns:svgjs="http://svgjs.com/svgjs" xmlns:xlink="http://www.w3.org/1999/xlink" width="288" height="288"><svg xmlns="http://www.w3.org/2000/svg" width="288" height="288" enable-background="new 0 0 297 297" viewBox="0 0 297 297"><path fill="#efe6ad" d="M280.214 39.211H16.786C7.531 39.211 0 46.742 0 55.997v24.335c0 9.256 7.531 16.787 16.786 16.787h263.428c9.255 0 16.786-7.531 16.786-16.787V55.997C297 46.742 289.469 39.211 280.214 39.211zM280.214 119.546H16.786C7.531 119.546 0 127.077 0 136.332v24.336c0 9.255 7.531 16.786 16.786 16.786h263.428c9.255 0 16.786-7.531 16.786-16.786v-24.336C297 127.077 289.469 119.546 280.214 119.546zM280.214 199.881H16.786C7.531 199.881 0 207.411 0 216.668v24.335c0 9.255 7.531 16.786 16.786 16.786h263.428c9.255 0 16.786-7.531 16.786-16.786v-24.335C297 207.411 289.469 199.881 280.214 199.881z" class="color000 svgShape"/></svg></svg>